<svg width="147" height="23" viewBox="0 0 147 23" fill="none" xmlns="http://www.w3.org/2000/svg">
<path d="M0.9375 22L0.796875 19.8437L3.70312 19.0469C3.73438 18.9219 3.76562 18.6406 3.79688 18.2031C3.82812 17.7344 3.85938 17.1719 3.89062 16.5156C3.92188 15.8594 3.9375 15.1406 3.9375 14.3594L3.98438 10.8437C3.98438 10.2187 3.96875 9.65624 3.9375 9.15624C3.90625 8.62499 3.85938 8.10936 3.79688 7.60936C3.73438 7.07811 3.65625 6.54686 3.5625 6.01561L0.5625 5.35936V3.24999L8.8125 1.14061L10.0781 1.93749L9.79688 4.65624L9.9375 4.70311C10.9375 3.42186 11.9844 2.49999 13.0781 1.93749C14.1719 1.34374 15.3125 1.04686 16.5 1.04686C17.7188 1.04686 18.8438 1.35936 19.875 1.98436C20.9375 2.57811 21.7969 3.49999 22.4531 4.74999C23.1094 5.96874 23.4375 7.54686 23.4375 9.48436L23.5312 14.3125C23.5312 15.3437 23.5469 16.3281 23.5781 17.2656C23.6094 18.2031 23.6719 18.7969 23.7656 19.0469L26.2969 19.8437L26.1562 22H15.0469L14.9062 19.8437L17.2969 19.0469C17.3594 18.7656 17.4062 18.375 17.4375 17.875C17.4688 17.3437 17.4844 16.7656 17.4844 16.1406C17.5156 15.5156 17.5312 14.9219 17.5312 14.3594L17.4844 9.95311C17.4844 8.82811 17.3125 7.93749 16.9688 7.28124C16.6562 6.59374 16.2188 6.10936 15.6562 5.82811C15.125 5.54686 14.5 5.40624 13.7812 5.40624C13.0938 5.40624 12.4062 5.59374 11.7188 5.96874C11.0312 6.31249 10.4531 6.79686 9.98438 7.42186V14.3125C9.98438 15.3437 10 16.3281 10.0312 17.2656C10.0938 18.2031 10.1562 18.7969 10.2188 19.0469L12.7969 19.8437L12.6562 22H0.9375ZM28.4531 22L28.3125 19.8437L30.75 19.0469C30.8125 18.7656 30.8594 18.375 30.8906 17.875C30.9219 17.3437 30.9375 16.7656 30.9375 16.1406C30.9688 15.5156 30.9844 14.9219 30.9844 14.3594L30.8906 10.375C30.8906 9.15624 30.7188 8.18749 30.375 7.46874C30.0312 6.74999 29.5625 6.23436 28.9688 5.92186C28.375 5.57811 27.7188 5.40624 27 5.40624C26.2188 5.40624 25.4688 5.57811 24.75 5.92186C24.0625 6.23436 23.4844 6.71874 23.0156 7.37499L21.6562 5.59374C22.7812 4.09374 23.9688 2.96874 25.2188 2.21874C26.5 1.43749 27.875 1.04686 29.3438 1.04686C30.8125 1.04686 32.1094 1.39061 33.2344 2.07811C34.3906 2.73436 35.2812 3.68749 35.9062 4.93749C36.5312 6.18749 36.8438 7.68749 36.8438 9.43749L36.9375 14.3125C36.9375 15.3437 36.9531 16.3281 36.9844 17.2656C37.0469 18.2031 37.1094 18.7969 37.1719 19.0469L40.0781 19.8437L39.9375 22H28.4531Z" fill="#110D0D"/>
<path d="M51.2944 22.375C49.2631 22.375 47.4506 21.9219 45.8569 21.0156C44.2944 20.1094 43.06 18.875 42.1538 17.3125C41.2788 15.75 40.8413 13.9844 40.8413 12.0156C40.8413 9.82811 41.3413 7.92186 42.3413 6.29686C43.3413 4.64061 44.6381 3.34374 46.2319 2.40624C47.8569 1.46874 49.5913 1.01561 51.435 1.04686C54.185 1.04686 56.31 1.90624 57.81 3.62499C59.31 5.31249 60.06 7.51561 60.06 10.2344V11.3594H46.2788V8.92186H55.4663L54.7631 10.0469V8.45311C54.7631 6.98436 54.435 5.81249 53.7788 4.93749C53.1225 4.06249 52.2163 3.62499 51.06 3.62499C50.2788 3.62499 49.5756 3.84374 48.9506 4.28124C48.3256 4.71874 47.8256 5.39061 47.4506 6.29686C47.1069 7.17186 46.935 8.28124 46.935 9.62499V10.6094C46.935 12.7969 47.5131 14.5625 48.6694 15.9062C49.8569 17.25 51.435 17.9219 53.4038 17.9219C54.4663 17.9219 55.435 17.7344 56.31 17.3594C57.185 16.9531 58.0288 16.2812 58.8413 15.3437L60.2944 16.6562C59.4194 18.5312 58.185 19.9531 56.5913 20.9219C54.9975 21.8906 53.2319 22.375 51.2944 22.375Z" fill="#110D0D"/>
<path d="M61.9706 22L61.83 19.8437L64.7363 19.0469C64.7675 18.9219 64.7988 18.6406 64.83 18.2031C64.8613 17.7344 64.8925 17.1719 64.9238 16.5156C64.955 15.8594 64.9706 15.1406 64.9706 14.3594L65.0175 10.8437C65.0175 10.2187 65.0019 9.65624 64.9706 9.15624C64.9394 8.62499 64.8925 8.10936 64.83 7.60936C64.7675 7.07811 64.6894 6.54686 64.5956 6.01561L61.5956 5.35936V3.24999L69.8456 1.14061L71.1113 1.93749L70.83 4.65624L70.9706 4.70311C71.9706 3.42186 73.0175 2.49999 74.1113 1.93749C75.205 1.34374 76.3456 1.04686 77.5331 1.04686C78.7519 1.04686 79.8769 1.35936 80.9081 1.98436C81.9706 2.57811 82.83 3.49999 83.4863 4.74999C84.1425 5.96874 84.4706 7.54686 84.4706 9.48436L84.5644 14.3125C84.5644 15.3437 84.58 16.3281 84.6113 17.2656C84.6425 18.2031 84.705 18.7969 84.7988 19.0469L87.33 19.8437L87.1894 22H76.08L75.9394 19.8437L78.33 19.0469C78.3925 18.7656 78.4394 18.375 78.4706 17.875C78.5019 17.3437 78.5175 16.7656 78.5175 16.1406C78.5488 15.5156 78.5644 14.9219 78.5644 14.3594L78.5175 9.95311C78.5175 8.82811 78.3456 7.93749 78.0019 7.28124C77.6894 6.59374 77.2519 6.10936 76.6894 5.82811C76.1581 5.54686 75.5331 5.40624 74.8144 5.40624C74.1269 5.40624 73.4394 5.59374 72.7519 5.96874C72.0644 6.31249 71.4863 6.79686 71.0175 7.42186V14.3125C71.0175 15.3437 71.0331 16.3281 71.0644 17.2656C71.1269 18.2031 71.1894 18.7969 71.2519 19.0469L73.83 19.8437L73.6894 22H61.9706ZM89.4863 22L89.3456 19.8437L91.7831 19.0469C91.8456 18.7656 91.8925 18.375 91.9238 17.875C91.955 17.3437 91.9706 16.7656 91.9706 16.1406C92.0019 15.5156 92.0175 14.9219 92.0175 14.3594L91.9238 10.375C91.9238 9.15624 91.7519 8.18749 91.4081 7.46874C91.0644 6.74999 90.5956 6.23436 90.0019 5.92186C89.4081 5.57811 88.7519 5.40624 88.0331 5.40624C87.2519 5.40624 86.5019 5.57811 85.7831 5.92186C85.0956 6.23436 84.5175 6.71874 84.0488 7.37499L82.6894 5.59374C83.8144 4.09374 85.0019 2.96874 86.2519 2.21874C87.5331 1.43749 88.9081 1.04686 90.3769 1.04686C91.8456 1.04686 93.1425 1.39061 94.2675 2.07811C95.4238 2.73436 96.3144 3.68749 96.9394 4.93749C97.5644 6.18749 97.8769 7.68749 97.8769 9.43749L97.9706 14.3125C97.9706 15.3437 97.9863 16.3281 98.0175 17.2656C98.08 18.2031 98.1425 18.7969 98.205 19.0469L101.111 19.8437L100.971 22H89.4863Z" fill="#110D0D"/>
<path d="M110.452 22.1875L101.827 4.32811L99.6244 3.57811L99.7181 1.42186H111.718L111.859 3.57811L108.952 4.32811L114.249 15.8125H112.89L117.812 4.32811L114.906 3.57811L115.046 1.42186H123.531L123.624 3.57811L121.421 4.32811L112.515 22.1875H110.452Z" fill="#110D0D"/>
<circle cx="135.078" cy="11.5004" r="11.5004" fill="#FE7171"/>
</svg>
